<?xml version="1.0" encoding="UTF-8"?>
<svg width="350" height="153" viewBox="0 0 350 153" class="css-1j8o68f">
  <defs id="SvgjsDefs2069">
    <linearGradient id="SvgjsLinearGradient2078">
      <stop id="SvgjsStop2079" stop-color="#7f00ff" offset="0"></stop>
      <stop id="SvgjsStop2080" stop-color="#e100ff" offset="1"></stop>
    </linearGradient>
    <linearGradient id="SvgjsLinearGradient2081">
      <stop id="SvgjsStop2082" stop-color="#7f00ff" offset="0"></stop>
      <stop id="SvgjsStop2083" stop-color="#e100ff" offset="1"></stop>
    </linearGradient>
    <linearGradient id="SvgjsLinearGradient2084">
      <stop id="SvgjsStop2085" stop-color="#7f00ff" offset="0"></stop>
      <stop id="SvgjsStop2086" stop-color="#e100ff" offset="1"></stop>
    </linearGradient>
  </defs>
  <g id="SvgjsG2070" transform="matrix(1,0,0,1,20,20)" fill="url(#SvgjsLinearGradient2078)">
    <rect xmlns="http://www.w3.org/2000/svg" width="110" height="133" rx="10" ry="10"></rect>
  </g>
  <g id="SvgjsG2071" transform="matrix(2.216452358198398,0,0,2.216452358198398,30.259800602292636,-0.12886893057062565)" fill="#1e1e1e">
    <path d="M4.3945 60 l0 -41.895 l18.75 0 c8.5547 0 12.832 3.9354 12.832 11.807 c0 8.5351 -5.8497 13.701 -17.549 15.498 l-1.1133 -6.9141 c7.0313 -1.2695 10.547 -4.0526 10.547 -8.3496 c0 -3.4767 -1.7383 -5.2148 -5.2148 -5.2148 l-10.488 0 l0 35.068 l-7.7637 0 z"></path>
  </g>
  <g id="SvgjsG2072" transform="matrix(0.9233612032888825,0,0,0.9233612032888825,147.45152242728915,52.064664942362135)" fill="url(#SvgjsLinearGradient2081)">
    <path d="M15.68 11.440000000000001 c3.04 0 5.44 0.82668 7.2 2.48 s2.64 3.88 2.64 6.68 c0 2.8267 -0.88 5.06 -2.64 6.7 s-4.1468 2.46 -7.16 2.46 l-6.68 0 l0 10.24 l-6.28 0 l0 -28.56 l12.92 0 z M14.04 24.880000000000003 c1.8133 0 3.1667 -0.33332 4.06 -1 s1.34 -1.76 1.34 -3.28 c0 -1.4667 -0.43332 -2.5467 -1.3 -3.24 s-2.22 -1.04 -4.06 -1.04 l-5.04 0 l0 8.56 l5 0 z M42.24 10.760000000000002 c4.2132 0 7.6068 1.4 10.18 4.2 s3.86 6.4268 3.86 10.88 c0 4.3468 -1.2933 7.9068 -3.88 10.68 s-5.9732 4.16 -10.16 4.16 c-4.2132 0 -7.6068 -1.3867 -10.18 -4.16 s-3.86 -6.3332 -3.86 -10.68 c0 -4.4268 1.2933 -8.0468 3.88 -10.86 s5.9732 -4.22 10.16 -4.22 z M34.48 25.84 c0 2.88 0.67996 5.1932 2.04 6.94 s3.2667 2.62 5.72 2.62 c2.4 0 4.2932 -0.86 5.68 -2.58 s2.08 -4.0468 2.08 -6.98 c0 -3.0667 -0.68668 -5.4668 -2.06 -7.2 s-3.2866 -2.6 -5.74 -2.6 c-2.4 0 -4.2868 0.86668 -5.66 2.6 s-2.06 4.1332 -2.06 7.2 z M70.39999999999999 10.760000000000002 c3.4933 0 6.2732 0.80004 8.34 2.4 s3.1 3.8667 3.1 6.8 l-6.08 0 c-0.08 -1.44 -0.56668 -2.52 -1.46 -3.24 s-2.2733 -1.08 -4.14 -1.08 c-1.3067 0 -2.36 0.28668 -3.16 0.86 s-1.2 1.3666 -1.2 2.38 c0 0.82668 0.24668 1.4267 0.74 1.8 s1.1933 0.70664 2.1 0.99996 s2.4934 0.72 4.76 1.28 c2.3733 0.58668 4.2 1.2267 5.48 1.92 s2.2533 1.58 2.92 2.66 s1 2.4067 1 3.98 c0 1.8133 -0.48 3.4266 -1.44 4.84 s-2.36 2.4866 -4.2 3.22 s-3.92 1.1 -6.24 1.1 c-3.5467 0 -6.46 -0.88668 -8.74 -2.66 s-3.42 -4.2068 -3.42 -7.3 l0 -0.2 l6.08 0 c0 1.68 0.57332 2.98 1.72 3.9 s2.6667 1.38 4.56 1.38 c1.68 0 3.0333 -0.3 4.06 -0.9 s1.54 -1.4867 1.54 -2.66 c0 -0.77332 -0.28 -1.4266 -0.84 -1.96 s-1.3067 -0.96664 -2.24 -1.3 s-2.5066 -0.75332 -4.72 -1.26 c-2.56 -0.64 -4.4268 -1.32 -5.6 -2.04 s-2.0666 -1.5933 -2.68 -2.62 s-0.92 -2.26 -0.92 -3.7 c0 -1.7867 0.51332 -3.3467 1.54 -4.68 s2.3667 -2.32 4.02 -2.96 s3.36 -0.96 5.12 -0.96 z M92.79999999999998 11.440000000000001 l0 10.96 l11.56 0 l0 -10.96 l6.28 0 l0 28.56 l-6.28 0 l0 -12.32 l-11.56 0 l0 12.32 l-6.28 0 l0 -28.56 l6.28 0 z M137.32 11.440000000000001 l0 5.28 l-8.56 0 l0 23.28 l-6.28 0 l0 -23.28 l-8.56 0 l0 -5.28 l23.4 0 z M149.44 11.440000000000001 l6.68 19.64 l0.08 0 l6.32 -19.64 l8.84 0 l0 28.56 l-5.88 0 l0 -20.24 l-0.08 0 l-7 20.24 l-4.84 0 l-7 -20.04 l-0.08 0 l0 20.04 l-5.88 0 l0 -28.56 l8.84 0 z M183.16 11.440000000000001 l0 23.28 l13.92 0 l0 5.28 l-20.2 0 l0 -28.56 l6.28 0 z M217.84 12 l-0.000039062 4.68 l-11.56 0 l-1.12 6.36 l0.08 0.08 c1.44 -1.44 3.2667 -2.16 5.48 -2.16 c2.5867 0 4.6732 0.88 6.26 2.64 s2.38 4.0532 2.38 6.88 c0 2.8 -1.0067 5.18 -3.02 7.14 s-4.4332 2.94 -7.26 2.94 c-3.12 0 -5.64 -0.81332 -7.56 -2.44 s-2.9067 -3.7734 -2.96 -6.44 l5.68 0 c0.13332 1.28 0.62 2.3 1.46 3.06 s1.8867 1.14 3.14 1.14 c1.4133 0 2.5733 -0.52668 3.48 -1.58 s1.36 -2.3266 1.36 -3.82 s-0.43332 -2.74 -1.3 -3.74 s-2.06 -1.5 -3.58 -1.5 c-1.0133 0 -1.84 0.18 -2.48 0.54 s-1.2267 0.92668 -1.76 1.7 l-5.12 0 l2.76 -15.48 l15.64 0 z"></path>
  </g>
  <g id="SvgjsG2073" transform="matrix(0.7383478008969941,0,0,0.7383478008969941,148.98110934824916,96.02768874667697)" fill="url(#SvgjsLinearGradient2084)">
    <path d="M9.08 5.720000000000001 c1.2 0 2.1968 0.37 2.99 1.11 s1.19 1.6833 1.19 2.83 c0 1.7867 -0.75334 2.98 -2.26 3.58 l0 0.04 c0.50666 0.14666 0.90332 0.39 1.19 0.73 s0.50332 0.73666 0.64998 1.19 s0.24 1.18 0.28 2.18 c0.05334 1.3067 0.24 2.18 0.56 2.62 l-3.14 0 c-0.17334 -0.44 -0.30668 -1.2667 -0.40002 -2.48 c-0.10666 -1.28 -0.34 -2.1166 -0.7 -2.51 s-0.94666 -0.59 -1.76 -0.59 l-3.16 0 l0 5.58 l-3.14 0 l0 -14.28 l7.7 0 z M7.98 12.18 c0.66666 0 1.19 -0.15 1.57 -0.45 s0.57 -0.83 0.57 -1.59 c0 -0.72 -0.18666 -1.23 -0.56 -1.53 s-0.90668 -0.45 -1.6 -0.45 l-3.44 0 l0 4.02 l3.46 0 z M26.5 5.720000000000001 l0 2.64 l-7.54 0 l0 3.06 l6.92 0 l0 2.44 l-6.92 0 l0 3.5 l7.7 0 l0 2.64 l-10.84 0 l0 -14.28 l10.68 0 z M35.239999999999995 5.720000000000001 c1.52 0 2.72 0.41334 3.6 1.24 s1.32 1.94 1.32 3.34 c0 1.4133 -0.44 2.53 -1.32 3.35 s-2.0734 1.23 -3.58 1.23 l-3.34 0 l0 5.12 l-3.14 0 l0 -14.28 l6.46 0 z M34.42 12.440000000000001 c0.90666 0 1.5833 -0.16666 2.03 -0.5 s0.67 -0.88 0.67 -1.64 c0 -0.73334 -0.21666 -1.2733 -0.65 -1.62 s-1.11 -0.52 -2.03 -0.52 l-2.52 0 l0 4.28 l2.5 0 z M48.519999999999996 5.380000000000001 c2.1066 0 3.8034 0.7 5.09 2.1 s1.93 3.2134 1.93 5.44 c0 2.1734 -0.64666 3.9534 -1.94 5.34 s-2.9866 2.08 -5.08 2.08 c-2.1066 0 -3.8034 -0.69334 -5.09 -2.08 s-1.93 -3.1666 -1.93 -5.34 c0 -2.2134 0.64666 -4.0234 1.94 -5.43 s2.9866 -2.11 5.08 -2.11 z M44.63999999999999 12.92 c0 1.44 0.33998 2.5966 1.02 3.47 s1.6333 1.31 2.86 1.31 c1.2 0 2.1466 -0.43 2.84 -1.29 s1.04 -2.0234 1.04 -3.49 c0 -1.5333 -0.34334 -2.7334 -1.03 -3.6 s-1.6433 -1.3 -2.87 -1.3 c-1.2 0 -2.1434 0.43334 -2.83 1.3 s-1.03 2.0666 -1.03 3.6 z M65.38 5.720000000000001 c1.2 0 2.1968 0.37 2.99 1.11 s1.19 1.6833 1.19 2.83 c0 1.7867 -0.75334 2.98 -2.26 3.58 l0 0.04 c0.50666 0.14666 0.90332 0.39 1.19 0.73 s0.50332 0.73666 0.64998 1.19 s0.24 1.18 0.28 2.18 c0.05334 1.3067 0.24 2.18 0.56 2.62 l-3.14 0 c-0.17334 -0.44 -0.30668 -1.2667 -0.40002 -2.48 c-0.10666 -1.28 -0.34 -2.1166 -0.7 -2.51 s-0.94666 -0.59 -1.76 -0.59 l-3.16 0 l0 5.58 l-3.14 0 l0 -14.28 l7.7 0 z M64.28 12.18 c0.66666 0 1.19 -0.15 1.57 -0.45 s0.57 -0.83 0.57 -1.59 c0 -0.72 -0.18666 -1.23 -0.56 -1.53 s-0.90668 -0.45 -1.6 -0.45 l-3.44 0 l0 4.02 l3.46 0 z M82.34 5.720000000000001 l0 2.64 l-4.28 0 l0 11.64 l-3.14 0 l0 -11.64 l-4.28 0 l0 -2.64 l11.7 0 z M92.67999999999999 5.720000000000001 l0 11.64 l6.96 0 l0 2.64 l-10.1 0 l0 -14.28 l3.14 0 z M104.53999999999999 5.720000000000001 l0 14.28 l-3.14 0 l0 -14.28 l3.14 0 z M110.44 5.720000000000001 l0 5.92 l5.58 -5.92 l3.92 0 l-5.58 5.64 l6.12 8.64 l-3.94 0 l-4.3 -6.42 l-1.8 1.82 l0 4.6 l-3.14 0 l0 -14.28 l3.14 0 z M132.42 5.720000000000001 l0 2.64 l-7.54 0 l0 3.06 l6.92 0 l0 2.44 l-6.92 0 l0 3.5 l7.7 0 l0 2.64 l-10.84 0 l0 -14.28 l10.68 0 z M147.38 5.720000000000001 l5.34 14.28 l-3.26 0 l-1.08 -3.18 l-5.34 0 l-1.12 3.18 l-3.18 0 l5.42 -14.28 l3.22 0 z M145.72 9.24 l-1.86 5.24 l3.7 0 l-1.8 -5.24 l-0.04 0 z M166.26 5.720000000000001 c3.0266 0 4.54 1.1733 4.54 3.52 c0 1.3467 -0.64666 2.3466 -1.94 3 c0.88 0.25334 1.5367 0.69668 1.97 1.33 s0.65 1.3967 0.65 2.29 c0 1.28 -0.46334 2.29 -1.39 3.03 s-2.1434 1.11 -3.65 1.11 l-6.92 0 l0 -14.28 l6.74 0 z M165.85999999999999 11.5 c1.2667 0 1.9 -0.56666 1.9 -1.7 c0 -1.0933 -0.70666 -1.64 -2.12 -1.64 l-2.98 0 l0 3.34 l3.2 0 z M166.04 17.56 c1.5333 0 2.3 -0.62666 2.3 -1.88 c0 -1.36 -0.74666 -2.04 -2.24 -2.04 l-3.44 0 l0 3.92 l3.38 0 z M180 5.380000000000001 c2.1066 0 3.8034 0.7 5.09 2.1 s1.93 3.2134 1.93 5.44 c0 2.1734 -0.64666 3.9534 -1.94 5.34 s-2.9866 2.08 -5.08 2.08 c-2.1066 0 -3.8034 -0.69334 -5.09 -2.08 s-1.93 -3.1666 -1.93 -5.34 c0 -2.2134 0.64666 -4.0234 1.94 -5.43 s2.9866 -2.11 5.08 -2.11 z M176.12 12.92 c0 1.44 0.33998 2.5966 1.02 3.47 s1.6333 1.31 2.86 1.31 c1.2 0 2.1466 -0.43 2.84 -1.29 s1.04 -2.0234 1.04 -3.49 c0 -1.5333 -0.34334 -2.7334 -1.03 -3.6 s-1.6433 -1.3 -2.87 -1.3 c-1.2 0 -2.1434 0.43334 -2.83 1.3 s-1.03 2.0666 -1.03 3.6 z M194.08 5.380000000000001 c1.7467 0 3.1366 0.40002 4.17 1.2 s1.55 1.9333 1.55 3.4 l-3.04 0 c-0.04 -0.72 -0.28334 -1.26 -0.73 -1.62 s-1.1367 -0.54 -2.07 -0.54 c-0.65334 0 -1.18 0.14334 -1.58 0.43 s-0.6 0.68332 -0.6 1.19 c0 0.41334 0.12334 0.71334 0.37 0.9 s0.59666 0.35332 1.05 0.49998 s1.2467 0.36 2.38 0.64 c1.1867 0.29334 2.1 0.61334 2.74 0.96 s1.1267 0.79 1.46 1.33 s0.5 1.2033 0.5 1.99 c0 0.90666 -0.24 1.7133 -0.72 2.42 s-1.18 1.2433 -2.1 1.61 s-1.96 0.55 -3.12 0.55 c-1.7733 0 -3.23 -0.44334 -4.37 -1.33 s-1.71 -2.1034 -1.71 -3.65 l0 -0.1 l3.04 0 c0 0.84 0.28666 1.49 0.86 1.95 s1.3333 0.69 2.28 0.69 c0.84 0 1.5167 -0.15 2.03 -0.45 s0.77 -0.74334 0.77 -1.33 c0 -0.38666 -0.14 -0.71332 -0.42 -0.97998 s-0.65334 -0.48332 -1.12 -0.64998 s-1.2533 -0.37666 -2.36 -0.63 c-1.28 -0.32 -2.2134 -0.66 -2.8 -1.02 s-1.0333 -0.79666 -1.34 -1.31 s-0.46 -1.13 -0.46 -1.85 c0 -0.89334 0.25666 -1.6733 0.77 -2.34 s1.1833 -1.16 2.01 -1.48 s1.68 -0.48 2.56 -0.48 z M207.06 5.380000000000001 c1.7467 0 3.1366 0.40002 4.17 1.2 s1.55 1.9333 1.55 3.4 l-3.04 0 c-0.04 -0.72 -0.28334 -1.26 -0.73 -1.62 s-1.1367 -0.54 -2.07 -0.54 c-0.65334 0 -1.18 0.14334 -1.58 0.43 s-0.6 0.68332 -0.6 1.19 c0 0.41334 0.12334 0.71334 0.37 0.9 s0.59666 0.35332 1.05 0.49998 s1.2467 0.36 2.38 0.64 c1.1867 0.29334 2.1 0.61334 2.74 0.96 s1.1267 0.79 1.46 1.33 s0.5 1.2033 0.5 1.99 c0 0.90666 -0.24 1.7133 -0.72 2.42 s-1.18 1.2433 -2.1 1.61 s-1.96 0.55 -3.12 0.55 c-1.7733 0 -3.23 -0.44334 -4.37 -1.33 s-1.71 -2.1034 -1.71 -3.65 l0 -0.1 l3.04 0 c0 0.84 0.28666 1.49 0.86 1.95 s1.3333 0.69 2.28 0.69 c0.84 0 1.5167 -0.15 2.03 -0.45 s0.77 -0.74334 0.77 -1.33 c0 -0.38666 -0.14 -0.71332 -0.42 -0.97998 s-0.65334 -0.48332 -1.12 -0.64998 s-1.2533 -0.37666 -2.36 -0.63 c-1.28 -0.32 -2.2134 -0.66 -2.8 -1.02 s-1.0333 -0.79666 -1.34 -1.31 s-0.46 -1.13 -0.46 -1.85 c0 -0.89334 0.25666 -1.6733 0.77 -2.34 s1.1833 -1.16 2.01 -1.48 s1.68 -0.48 2.56 -0.48 z M218.07999999999998 16.92 l0 3.08 l-3.14 0 l0 -3.08 l3.14 0 z"></path>
  </g>
</svg>
